<svg width="200" height="200" xmlns="http://www.w3.org/2000/svg">
  <rect width="200" height="200" fill="#f0f0f0" stroke="#ddd" stroke-width="2"/>
  <rect x="20" y="20" width="160" height="160" fill="white" stroke="#333" stroke-width="1"/>
  
  <!-- 微信Logo简化版 -->
  <circle cx="85" cy="75" r="18" fill="#07C160"/>
  <circle cx="115" cy="85" r="15" fill="#07C160"/>
  <text x="100" y="105" text-anchor="middle" fill="#07C160" font-family="Arial" font-size="12" font-weight="bold">WeChat</text>
  
  <!-- 二维码模拟 -->
  <g fill="#333">
    <rect x="40" y="115" width="4" height="4"/>
    <rect x="48" y="115" width="4" height="4"/>
    <rect x="56" y="115" width="4" height="4"/>
    <rect x="72" y="115" width="4" height="4"/>
    <rect x="80" y="115" width="4" height="4"/>
    <rect x="96" y="115" width="4" height="4"/>
    <rect x="104" y="115" width="4" height="4"/>
    <rect x="120" y="115" width="4" height="4"/>
    <rect x="128" y="115" width="4" height="4"/>
    <rect x="144" y="115" width="4" height="4"/>
    <rect x="152" y="115" width="4" height="4"/>
    
    <rect x="40" y="123" width="4" height="4"/>
    <rect x="56" y="123" width="4" height="4"/>
    <rect x="64" y="123" width="4" height="4"/>
    <rect x="88" y="123" width="4" height="4"/>
    <rect x="96" y="123" width="4" height="4"/>
    <rect x="112" y="123" width="4" height="4"/>
    <rect x="136" y="123" width="4" height="4"/>
    <rect x="152" y="123" width="4" height="4"/>
    
    <rect x="48" y="131" width="4" height="4"/>
    <rect x="64" y="131" width="4" height="4"/>
    <rect x="72" y="131" width="4" height="4"/>
    <rect x="80" y="131" width="4" height="4"/>
    <rect x="104" y="131" width="4" height="4"/>
    <rect x="120" y="131" width="4" height="4"/>
    <rect x="128" y="131" width="4" height="4"/>
    <rect x="144" y="131" width="4" height="4"/>
    
    <rect x="40" y="139" width="4" height="4"/>
    <rect x="48" y="139" width="4" height="4"/>
    <rect x="72" y="139" width="4" height="4"/>
    <rect x="88" y="139" width="4" height="4"/>
    <rect x="112" y="139" width="4" height="4"/>
    <rect x="128" y="139" width="4" height="4"/>
    <rect x="136" y="139" width="4" height="4"/>
    <rect x="152" y="139" width="4" height="4"/>
    
    <rect x="56" y="147" width="4" height="4"/>
    <rect x="64" y="147" width="4" height="4"/>
    <rect x="80" y="147" width="4" height="4"/>
    <rect x="96" y="147" width="4" height="4"/>
    <rect x="104" y="147" width="4" height="4"/>
    <rect x="120" y="147" width="4" height="4"/>
    <rect x="144" y="147" width="4" height="4"/>
    
    <rect x="40" y="155" width="4" height="4"/>
    <rect x="56" y="155" width="4" height="4"/>
    <rect x="72" y="155" width="4" height="4"/>
    <rect x="88" y="155" width="4" height="4"/>
    <rect x="96" y="155" width="4" height="4"/>
    <rect x="112" y="155" width="4" height="4"/>
    <rect x="136" y="155" width="4" height="4"/>
    <rect x="152" y="155" width="4" height="4"/>
  </g>
  
  <text x="100" y="175" text-anchor="middle" fill="#666" font-family="Arial" font-size="12">微信交流群</text>
  <text x="100" y="190" text-anchor="middle" fill="#999" font-family="Arial" font-size="10">扫码加入</text>
</svg>